<svg width="41" height="15" viewBox="0 0 41 15" fill="none" xmlns="http://www.w3.org/2000/svg">
<path d="M11.5781 15H9.69336V8.42773H2.52539V15H0.650391V0.78125H2.52539V6.89453H9.69336V0.78125H11.5781V15ZM25.8359 0.78125V15H23.9609V2.32422H18.8633L18.6094 7.95898C18.5117 9.84701 18.3164 11.2663 18.0234 12.2168C17.737 13.1673 17.3138 13.8672 16.7539 14.3164C16.194 14.7591 15.4453 14.987 14.5078 15H13.8926V13.4668L14.2832 13.4473C14.8887 13.4017 15.3542 13.2064 15.6797 12.8613C16.0052 12.5098 16.2526 11.9531 16.4219 11.1914C16.5911 10.4297 16.7116 9.25781 16.7832 7.67578L17.0762 0.78125H25.8359ZM32.9355 8.61328H31.207V15H29.332V0.78125H31.207V7.05078H32.6719L37.6426 0.78125H39.9766L34.5469 7.67578L40.377 15H38.082L32.9355 8.61328Z" fill="white"/>
</svg>
